<?xml version="1.0" encoding="windows-1252" standalone="no"?>
<svg xmlns="http://www.w3.org/2000/svg" xmlns:xlink="http://www.w3.org/1999/xlink" contentStyleType="text/css" height="678px" preserveAspectRatio="none" style="width:482px;height:678px;background:#1B1B1B;" version="1.1" viewBox="0 0 482 678" width="482px" zoomAndPan="magnify"><defs/><g><rect fill="#1B1B1B" height="678" style="stroke:none;stroke-width:1.0;" width="482" x="0" y="0"/><ellipse cx="227.5" cy="20" fill="#DDDDDD" rx="10" ry="10" style="stroke:#DDDDDD;stroke-width:1.0;"/><rect fill="#313139" height="33.9688" rx="12.5" ry="12.5" style="stroke:#E7E7E7;stroke-width:0.5;" width="193" x="131" y="50"/><text fill="#FFFFFF" font-family="sans-serif" font-size="12" lengthAdjust="spacing" textLength="173" x="141" y="71.1387">S'identifier en tant qu'usager</text><rect fill="#313139" height="33.9688" rx="12.5" ry="12.5" style="stroke:#E7E7E7;stroke-width:0.5;" width="131" x="162" y="103.9688"/><text fill="#FFFFFF" font-family="sans-serif" font-size="12" lengthAdjust="spacing" textLength="111" x="172" y="125.1074">Afficher un produit</text><rect fill="#313139" height="33.9688" rx="12.5" ry="12.5" style="stroke:#E7E7E7;stroke-width:0.5;" width="129" x="163" y="206.3398"/><text fill="#FFFFFF" font-family="sans-serif" font-size="12" lengthAdjust="spacing" textLength="109" x="173" y="227.4785">Acheter le produit</text><polygon fill="#313139" points="183.5,157.9375,271.5,157.9375,283.5,169.9375,271.5,181.9375,183.5,181.9375,171.5,169.9375,183.5,157.9375" style="stroke:#E7E7E7;stroke-width:0.5;"/><text fill="#FFFFFF" font-family="sans-serif" font-size="11" lengthAdjust="spacing" textLength="14" x="231.5" y="192.1479">no</text><text fill="#FFFFFF" font-family="sans-serif" font-size="11" lengthAdjust="spacing" textLength="88" x="183.5" y="173.7456">Produit acheté?</text><text fill="#FFFFFF" font-family="sans-serif" font-size="11" lengthAdjust="spacing" textLength="21" x="283.5" y="167.3433">yes</text><polygon fill="#313139" points="227.5,260.3086,239.5,272.3086,227.5,284.3086,215.5,272.3086,227.5,260.3086" style="stroke:#E7E7E7;stroke-width:0.5;"/><rect fill="#313139" height="33.9688" rx="12.5" ry="12.5" style="stroke:#E7E7E7;stroke-width:0.5;" width="313" x="71" y="304.3086"/><text fill="#FFFFFF" font-family="sans-serif" font-size="12" lengthAdjust="spacing" textLength="293" x="81" y="325.4473">Laisser un commentaire et une note d'évaluation</text><polygon fill="#313139" points="121,402.2773,334,402.2773,346,414.2773,334,426.2773,121,426.2773,109,414.2773,121,402.2773" style="stroke:#E7E7E7;stroke-width:0.5;"/><text fill="#FFFFFF" font-family="sans-serif" font-size="11" lengthAdjust="spacing" textLength="213" x="121" y="418.0854">Quelqu'un intéragi avec l'évaluation?</text><rect fill="#313139" height="33.9688" rx="12.5" ry="12.5" style="stroke:#E7E7E7;stroke-width:0.5;" width="120" x="11" y="461.8867"/><text fill="#FFFFFF" font-family="sans-serif" font-size="12" lengthAdjust="spacing" textLength="100" x="21" y="483.0254">Perdre 10 points</text><rect fill="#313139" height="33.9688" rx="12.5" ry="12.5" style="stroke:#E7E7E7;stroke-width:0.5;" width="124" x="164" y="461.8867"/><text fill="#FFFFFF" font-family="sans-serif" font-size="12" lengthAdjust="spacing" textLength="104" x="174" y="483.0254">Gagner 10 points</text><rect fill="#313139" height="33.9688" rx="12.5" ry="12.5" style="stroke:#E7E7E7;stroke-width:0.5;" width="120" x="314" y="461.8867"/><text fill="#FFFFFF" font-family="sans-serif" font-size="12" lengthAdjust="spacing" textLength="100" x="324" y="483.0254">Perdre 10 points</text><polygon fill="#313139" points="227.5,535.8555,227.5,535.8555,239.5,547.8555,227.5,559.8555,227.5,559.8555,215.5,547.8555,227.5,535.8555" style="stroke:#E7E7E7;stroke-width:0.5;"/><polygon fill="#313139" points="227.5,358.2773,239.5,370.2773,227.5,382.2773,215.5,370.2773,227.5,358.2773" style="stroke:#E7E7E7;stroke-width:0.5;"/><polygon fill="#313139" points="145.5,579.8555,309.5,579.8555,321.5,591.8555,309.5,603.8555,145.5,603.8555,133.5,591.8555,145.5,579.8555" style="stroke:#E7E7E7;stroke-width:0.5;"/><text fill="#FFFFFF" font-family="sans-serif" font-size="11" lengthAdjust="spacing" textLength="164" x="145.5" y="595.6636">L'évaluation existe toujours?</text><text fill="#FFFFFF" font-family="sans-serif" font-size="11" lengthAdjust="spacing" textLength="19" x="321.5" y="589.2612">Oui</text><ellipse cx="227.5" cy="656.2544" fill="none" rx="11" ry="11" style="stroke:#DDDDDD;stroke-width:1.0;"/><ellipse cx="227.5" cy="656.2544" fill="#DDDDDD" rx="6" ry="6" style="stroke:#DDDDDD;stroke-width:1.0;"/><line style="stroke:#E7E7E7;stroke-width:1.0;" x1="227.5" x2="227.5" y1="30" y2="50"/><polygon fill="#E7E7E7" points="223.5,40,227.5,50,231.5,40,227.5,44" style="stroke:#E7E7E7;stroke-width:1.0;"/><line style="stroke:#E7E7E7;stroke-width:1.0;" x1="227.5" x2="227.5" y1="83.9688" y2="103.9688"/><polygon fill="#E7E7E7" points="223.5,93.9688,227.5,103.9688,231.5,93.9688,227.5,97.9688" style="stroke:#E7E7E7;stroke-width:1.0;"/><line style="stroke:#E7E7E7;stroke-width:1.0;" x1="227.5" x2="227.5" y1="181.9375" y2="206.3398"/><polygon fill="#E7E7E7" points="223.5,196.3398,227.5,206.3398,231.5,196.3398,227.5,200.3398" style="stroke:#E7E7E7;stroke-width:1.0;"/><line style="stroke:#E7E7E7;stroke-width:1.0;" x1="283.5" x2="302" y1="169.9375" y2="169.9375"/><polygon fill="#E7E7E7" points="298,213.3242,302,223.3242,306,213.3242,302,217.3242" style="stroke:#E7E7E7;stroke-width:1.0;"/><line style="stroke:#E7E7E7;stroke-width:1.0;" x1="302" x2="302" y1="169.9375" y2="272.3086"/><line style="stroke:#E7E7E7;stroke-width:1.0;" x1="302" x2="239.5" y1="272.3086" y2="272.3086"/><polygon fill="#E7E7E7" points="249.5,268.3086,239.5,272.3086,249.5,276.3086,245.5,272.3086" style="stroke:#E7E7E7;stroke-width:1.0;"/><line style="stroke:#E7E7E7;stroke-width:1.0;" x1="227.5" x2="227.5" y1="240.3086" y2="260.3086"/><polygon fill="#E7E7E7" points="223.5,250.3086,227.5,260.3086,231.5,250.3086,227.5,254.3086" style="stroke:#E7E7E7;stroke-width:1.0;"/><line style="stroke:#E7E7E7;stroke-width:1.0;" x1="227.5" x2="227.5" y1="137.9375" y2="157.9375"/><polygon fill="#E7E7E7" points="223.5,147.9375,227.5,157.9375,231.5,147.9375,227.5,151.9375" style="stroke:#E7E7E7;stroke-width:1.0;"/><line style="stroke:#E7E7E7;stroke-width:1.0;" x1="227.5" x2="227.5" y1="284.3086" y2="304.3086"/><polygon fill="#E7E7E7" points="223.5,294.3086,227.5,304.3086,231.5,294.3086,227.5,298.3086" style="stroke:#E7E7E7;stroke-width:1.0;"/><line style="stroke:#E7E7E7;stroke-width:1.0;" x1="109" x2="71" y1="414.2773" y2="414.2773"/><line style="stroke:#E7E7E7;stroke-width:1.0;" x1="71" x2="71" y1="414.2773" y2="461.8867"/><polygon fill="#E7E7E7" points="67,451.8867,71,461.8867,75,451.8867,71,455.8867" style="stroke:#E7E7E7;stroke-width:1.0;"/><text fill="#FFFFFF" font-family="sans-serif" font-size="11" lengthAdjust="spacing" textLength="73" x="71" y="441.8901">Signalement</text><line style="stroke:#E7E7E7;stroke-width:1.0;" x1="346" x2="374" y1="414.2773" y2="414.2773"/><line style="stroke:#E7E7E7;stroke-width:1.0;" x1="374" x2="374" y1="414.2773" y2="461.8867"/><polygon fill="#E7E7E7" points="370,451.8867,374,461.8867,378,451.8867,374,455.8867" style="stroke:#E7E7E7;stroke-width:1.0;"/><text fill="#FFFFFF" font-family="sans-serif" font-size="11" lengthAdjust="spacing" textLength="70" x="374" y="441.8901">Suppression</text><line style="stroke:#E7E7E7;stroke-width:1.0;" x1="227.5" x2="227.5" y1="426.2773" y2="438.1471"/><line style="stroke:#E7E7E7;stroke-width:1.0;" x1="227.5" x2="226" y1="438.1471" y2="438.1471"/><line style="stroke:#E7E7E7;stroke-width:1.0;" x1="226" x2="226" y1="438.1471" y2="461.8867"/><polygon fill="#E7E7E7" points="222,451.8867,226,461.8867,230,451.8867,226,455.8867" style="stroke:#E7E7E7;stroke-width:1.0;"/><text fill="#FFFFFF" font-family="sans-serif" font-size="11" lengthAdjust="spacing" textLength="68" x="226" y="442.8901">Premier like</text><line style="stroke:#E7E7E7;stroke-width:1.0;" x1="71" x2="71" y1="495.8555" y2="547.8555"/><line style="stroke:#E7E7E7;stroke-width:1.0;" x1="71" x2="215.5" y1="547.8555" y2="547.8555"/><polygon fill="#E7E7E7" points="205.5,543.8555,215.5,547.8555,205.5,551.8555,209.5,547.8555" style="stroke:#E7E7E7;stroke-width:1.0;"/><line style="stroke:#E7E7E7;stroke-width:1.0;" x1="374" x2="374" y1="495.8555" y2="547.8555"/><line style="stroke:#E7E7E7;stroke-width:1.0;" x1="374" x2="239.5" y1="547.8555" y2="547.8555"/><polygon fill="#E7E7E7" points="249.5,543.8555,239.5,547.8555,249.5,551.8555,245.5,547.8555" style="stroke:#E7E7E7;stroke-width:1.0;"/><line style="stroke:#E7E7E7;stroke-width:1.0;" x1="226" x2="226" y1="495.8555" y2="520.8555"/><line style="stroke:#E7E7E7;stroke-width:1.0;" x1="226" x2="227.5" y1="520.8555" y2="520.8555"/><line style="stroke:#E7E7E7;stroke-width:1.0;" x1="227.5" x2="227.5" y1="520.8555" y2="535.8555"/><polygon fill="#E7E7E7" points="223.5,525.8555,227.5,535.8555,231.5,525.8555,227.5,529.8555" style="stroke:#E7E7E7;stroke-width:1.0;"/><line style="stroke:#E7E7E7;stroke-width:1.0;" x1="227.5" x2="227.5" y1="382.2773" y2="402.2773"/><polygon fill="#E7E7E7" points="223.5,392.2773,227.5,402.2773,231.5,392.2773,227.5,396.2773" style="stroke:#E7E7E7;stroke-width:1.0;"/><line style="stroke:#E7E7E7;stroke-width:1.0;" x1="321.5" x2="456" y1="591.8555" y2="591.8555"/><polygon fill="#E7E7E7" points="452,515.8555,456,505.8555,460,515.8555,456,511.8555" style="stroke:#E7E7E7;stroke-width:1.0;"/><line style="stroke:#E7E7E7;stroke-width:1.0;" x1="456" x2="456" y1="370.2773" y2="591.8555"/><line style="stroke:#E7E7E7;stroke-width:1.0;" x1="456" x2="239.5" y1="370.2773" y2="370.2773"/><polygon fill="#E7E7E7" points="249.5,366.2773,239.5,370.2773,249.5,374.2773,245.5,370.2773" style="stroke:#E7E7E7;stroke-width:1.0;"/><line style="stroke:#E7E7E7;stroke-width:1.0;" x1="227.5" x2="227.5" y1="559.8555" y2="579.8555"/><polygon fill="#E7E7E7" points="223.5,569.8555,227.5,579.8555,231.5,569.8555,227.5,573.8555" style="stroke:#E7E7E7;stroke-width:1.0;"/><line style="stroke:#E7E7E7;stroke-width:1.0;" x1="227.5" x2="227.5" y1="338.2773" y2="358.2773"/><polygon fill="#E7E7E7" points="223.5,348.2773,227.5,358.2773,231.5,348.2773,227.5,352.2773" style="stroke:#E7E7E7;stroke-width:1.0;"/><line style="stroke:#E7E7E7;stroke-width:1.0;" x1="227.5" x2="227.5" y1="603.8555" y2="645.2544"/><polygon fill="#E7E7E7" points="223.5,635.2544,227.5,645.2544,231.5,635.2544,227.5,639.2544" style="stroke:#E7E7E7;stroke-width:1.0;"/><text fill="#FFFFFF" font-family="sans-serif" font-size="11" lengthAdjust="spacing" textLength="14" x="231.5" y="625.1602">no</text><!--SRC=[TP11JiD034NtSmhlaYoGO9j8L5sngKHHJs0bJcAOp8InfuKZzHoz68uIYKg8sTd-y_-pHJ6fgqy5TnIKUwO4540nA7pc8WiEb1fNx_kUsz66ES2SOfTP6ySzbCUr0BIftgwx2dGqW_ARf79Wpv4NWZB4jQptYz2CFFqQKUYuT_K1MMJDQECq6H1o8Y2r3a68Ij0Lj-iPVKRb61gNQ2PK9nVMTeJoBPDVg0DmC9Y40mEUgGL__srNkHONfXCF0JqjGHlSaL9dYK-FC4Upa6PJ7XDDosayVz0cVS4XMEUFz9JdEP681VrhQlkkoDi2S1dPxb4UxZ61lbXiPOtvFUOaTbeMA5ypL-xXESJ6EISQvny0]--></g></svg>