<?xml version="1.0" encoding="windows-1252" standalone="no"?>
<svg xmlns="http://www.w3.org/2000/svg" xmlns:xlink="http://www.w3.org/1999/xlink" contentStyleType="text/css" height="707px" preserveAspectRatio="none" style="width:725px;height:707px;background:#1B1B1B;" version="1.1" viewBox="0 0 725 707" width="725px" zoomAndPan="magnify"><defs/><g><rect fill="#1B1B1B" height="707" style="stroke:none;stroke-width:1.0;" width="725" x="0" y="0"/><rect fill="#000000" height="195.9297" style="stroke:#E7E7E7;stroke-width:1.0;" width="10" x="36" y="91.2969"/><rect fill="#000000" height="116.5313" style="stroke:#E7E7E7;stroke-width:1.0;" width="10" x="36" y="492.0234"/><rect fill="#000000" height="174.7969" style="stroke:#E7E7E7;stroke-width:1.0;" width="10" x="318" y="112.4297"/><rect fill="#000000" height="292.1953" style="stroke:#E7E7E7;stroke-width:1.0;" width="10" x="318" y="316.3594"/><rect fill="#000000" height="29.1328" style="stroke:#E7E7E7;stroke-width:1.0;" width="10" x="593" y="141.5625"/><rect fill="#000000" height="29.1328" style="stroke:#E7E7E7;stroke-width:1.0;" width="10" x="593" y="258.0938"/><rect fill="#000000" height="88.2656" style="stroke:#E7E7E7;stroke-width:1.0;" width="10" x="593" y="316.3594"/><rect fill="#000000" height="29.1328" style="stroke:#E7E7E7;stroke-width:1.0;" width="10" x="593" y="550.2891"/><rect fill="#000000" height="59.1328" style="stroke:#E7E7E7;stroke-width:1.0;" width="10" x="693" y="287.2266"/><rect fill="#000000" height="58.2656" style="stroke:#E7E7E7;stroke-width:1.0;" width="10" x="693" y="433.7578"/><line style="stroke:#E7E7E7;stroke-width:0.5;stroke-dasharray:5.0,5.0;" x1="41" x2="41" y1="81.2969" y2="626.5547"/><line style="stroke:#E7E7E7;stroke-width:0.5;stroke-dasharray:5.0,5.0;" x1="322.5" x2="322.5" y1="81.2969" y2="626.5547"/><line style="stroke:#E7E7E7;stroke-width:0.5;stroke-dasharray:5.0,5.0;" x1="597.5" x2="597.5" y1="81.2969" y2="626.5547"/><line style="stroke:#E7E7E7;stroke-width:0.5;stroke-dasharray:5.0,5.0;" x1="697.5" x2="697.5" y1="81.2969" y2="626.5547"/><text fill="#FFFFFF" font-family="sans-serif" font-size="14" lengthAdjust="spacing" textLength="66" x="5" y="77.9951">Acheteur</text><ellipse cx="41" cy="13.5" fill="#222222" rx="8" ry="8" style="stroke:#E7E7E7;stroke-width:0.5;"/><path d="M41,21.5 L41,48.5 M28,29.5 L54,29.5 M41,48.5 L28,63.5 M41,48.5 L54,63.5 " fill="none" style="stroke:#E7E7E7;stroke-width:0.5;"/><text fill="#FFFFFF" font-family="sans-serif" font-size="14" lengthAdjust="spacing" textLength="66" x="5" y="638.5498">Acheteur</text><ellipse cx="41" cy="650.3516" fill="#222222" rx="8" ry="8" style="stroke:#E7E7E7;stroke-width:0.5;"/><path d="M41,658.3516 L41,685.3516 M28,666.3516 L54,666.3516 M41,685.3516 L28,700.3516 M41,685.3516 L54,700.3516 " fill="none" style="stroke:#E7E7E7;stroke-width:0.5;"/><text fill="#FFFFFF" font-family="sans-serif" font-size="14" lengthAdjust="spacing" textLength="59" x="290.5" y="77.9951">UniShop</text><ellipse cx="323" cy="49" fill="#222222" rx="12" ry="12" style="stroke:#E7E7E7;stroke-width:0.5;"/><line style="stroke:#E7E7E7;stroke-width:0.5;" x1="311" x2="335" y1="63" y2="63"/><text fill="#FFFFFF" font-family="sans-serif" font-size="14" lengthAdjust="spacing" textLength="59" x="290.5" y="638.5498">UniShop</text><ellipse cx="323" cy="657.8516" fill="#222222" rx="12" ry="12" style="stroke:#E7E7E7;stroke-width:0.5;"/><line style="stroke:#E7E7E7;stroke-width:0.5;" x1="311" x2="335" y1="671.8516" y2="671.8516"/><text fill="#FFFFFF" font-family="sans-serif" font-size="14" lengthAdjust="spacing" textLength="121" x="534.5" y="77.9951">Base de données</text><path d="M580,29 C580,19 598,19 598,19 C598,19 616,19 616,29 L616,55 C616,65 598,65 598,65 C598,65 580,65 580,55 L580,29 " fill="#222222" style="stroke:#E7E7E7;stroke-width:1.5;"/><path d="M580,29 C580,39 598,39 598,39 C598,39 616,39 616,29 " fill="none" style="stroke:#E7E7E7;stroke-width:1.5;"/><text fill="#FFFFFF" font-family="sans-serif" font-size="14" lengthAdjust="spacing" textLength="121" x="534.5" y="638.5498">Base de données</text><path d="M580,651.8516 C580,641.8516 598,641.8516 598,641.8516 C598,641.8516 616,641.8516 616,651.8516 L616,677.8516 C616,687.8516 598,687.8516 598,687.8516 C598,687.8516 580,687.8516 580,677.8516 L580,651.8516 " fill="#222222" style="stroke:#E7E7E7;stroke-width:1.5;"/><path d="M580,651.8516 C580,661.8516 598,661.8516 598,661.8516 C598,661.8516 616,661.8516 616,651.8516 " fill="none" style="stroke:#E7E7E7;stroke-width:1.5;"/><text fill="#FFFFFF" font-family="sans-serif" font-size="14" lengthAdjust="spacing" textLength="47" x="671.5" y="77.9951">usager</text><ellipse cx="698" cy="13.5" fill="#222222" rx="8" ry="8" style="stroke:#E7E7E7;stroke-width:0.5;"/><path d="M698,21.5 L698,48.5 M685,29.5 L711,29.5 M698,48.5 L685,63.5 M698,48.5 L711,63.5 " fill="none" style="stroke:#E7E7E7;stroke-width:0.5;"/><text fill="#FFFFFF" font-family="sans-serif" font-size="14" lengthAdjust="spacing" textLength="47" x="671.5" y="638.5498">usager</text><ellipse cx="698" cy="650.3516" fill="#222222" rx="8" ry="8" style="stroke:#E7E7E7;stroke-width:0.5;"/><path d="M698,658.3516 L698,685.3516 M685,666.3516 L711,666.3516 M698,685.3516 L685,700.3516 M698,685.3516 L711,700.3516 " fill="none" style="stroke:#E7E7E7;stroke-width:0.5;"/><rect fill="#000000" height="195.9297" style="stroke:#E7E7E7;stroke-width:1.0;" width="10" x="36" y="91.2969"/><rect fill="#000000" height="116.5313" style="stroke:#E7E7E7;stroke-width:1.0;" width="10" x="36" y="492.0234"/><rect fill="#000000" height="174.7969" style="stroke:#E7E7E7;stroke-width:1.0;" width="10" x="318" y="112.4297"/><rect fill="#000000" height="292.1953" style="stroke:#E7E7E7;stroke-width:1.0;" width="10" x="318" y="316.3594"/><rect fill="#000000" height="29.1328" style="stroke:#E7E7E7;stroke-width:1.0;" width="10" x="593" y="141.5625"/><rect fill="#000000" height="29.1328" style="stroke:#E7E7E7;stroke-width:1.0;" width="10" x="593" y="258.0938"/><rect fill="#000000" height="88.2656" style="stroke:#E7E7E7;stroke-width:1.0;" width="10" x="593" y="316.3594"/><rect fill="#000000" height="29.1328" style="stroke:#E7E7E7;stroke-width:1.0;" width="10" x="593" y="550.2891"/><rect fill="#000000" height="59.1328" style="stroke:#E7E7E7;stroke-width:1.0;" width="10" x="693" y="287.2266"/><rect fill="#000000" height="58.2656" style="stroke:#E7E7E7;stroke-width:1.0;" width="10" x="693" y="433.7578"/><polygon fill="#E7E7E7" points="306,108.4297,316,112.4297,306,116.4297,310,112.4297" style="stroke:#E7E7E7;stroke-width:1.0;"/><line style="stroke:#E7E7E7;stroke-width:1.0;" x1="46" x2="312" y1="112.4297" y2="112.4297"/><text fill="#FFFFFF" font-family="sans-serif" font-size="13" lengthAdjust="spacing" textLength="154" x="53" y="107.3638">afficherProduitAcheter()</text><polygon fill="#E7E7E7" points="581,137.5625,591,141.5625,581,145.5625,585,141.5625" style="stroke:#E7E7E7;stroke-width:1.0;"/><line style="stroke:#E7E7E7;stroke-width:1.0;" x1="328" x2="587" y1="141.5625" y2="141.5625"/><text fill="#FFFFFF" font-family="sans-serif" font-size="13" lengthAdjust="spacing" textLength="188" x="335" y="136.4966">listeProduitAcheter(acheteur)</text><polygon fill="#E7E7E7" points="339,166.6953,329,170.6953,339,174.6953,335,170.6953" style="stroke:#E7E7E7;stroke-width:1.0;"/><line style="stroke:#E7E7E7;stroke-width:1.0;" x1="333" x2="597" y1="170.6953" y2="170.6953"/><text fill="#FFFFFF" font-family="sans-serif" font-size="13" lengthAdjust="spacing" textLength="55" x="345" y="165.6294">Produit[]</text><polygon fill="#E7E7E7" points="57,195.8281,47,199.8281,57,203.8281,53,199.8281" style="stroke:#E7E7E7;stroke-width:1.0;"/><line style="stroke:#E7E7E7;stroke-width:1.0;" x1="51" x2="317" y1="199.8281" y2="199.8281"/><text fill="#FFFFFF" font-family="sans-serif" font-size="13" lengthAdjust="spacing" textLength="111" x="63" y="194.7622">afficherProduits()</text><polygon fill="#E7E7E7" points="306,224.9609,316,228.9609,306,232.9609,310,228.9609" style="stroke:#E7E7E7;stroke-width:1.0;"/><line style="stroke:#E7E7E7;stroke-width:1.0;" x1="46" x2="312" y1="228.9609" y2="228.9609"/><text fill="#FFFFFF" font-family="sans-serif" font-size="13" lengthAdjust="spacing" textLength="219" x="53" y="223.895">produit.evaluerProduit(evaluation)</text><polygon fill="#E7E7E7" points="581,254.0938,591,258.0938,581,262.0938,585,258.0938" style="stroke:#E7E7E7;stroke-width:1.0;"/><line style="stroke:#E7E7E7;stroke-width:1.0;" x1="328" x2="587" y1="258.0938" y2="258.0938"/><text fill="#FFFFFF" font-family="sans-serif" font-size="13" lengthAdjust="spacing" textLength="219" x="335" y="253.0278">produit.evaluerProduit(evaluation)</text><polygon fill="#E7E7E7" points="334,283.2266,324,287.2266,334,291.2266,330,287.2266" style="stroke:#E7E7E7;stroke-width:1.0;"/><line style="stroke:#E7E7E7;stroke-width:1.0;" x1="328" x2="597" y1="287.2266" y2="287.2266"/><text fill="#FFFFFF" font-family="sans-serif" font-size="13" lengthAdjust="spacing" textLength="17" x="340" y="282.1606">&#128077;</text><polygon fill="#E7E7E7" points="339,312.3594,329,316.3594,339,320.3594,335,316.3594" style="stroke:#E7E7E7;stroke-width:1.0;"/><line style="stroke:#E7E7E7;stroke-width:1.0;" x1="333" x2="692" y1="316.3594" y2="316.3594"/><text fill="#FFFFFF" font-family="sans-serif" font-size="13" lengthAdjust="spacing" textLength="214" x="345" y="311.2935">produit.likeEvaluation(evaluation)</text><polygon fill="#E7E7E7" points="581,371.4922,591,375.4922,581,379.4922,585,375.4922" style="stroke:#E7E7E7;stroke-width:1.0;"/><line style="stroke:#E7E7E7;stroke-width:1.0;" x1="328" x2="587" y1="375.4922" y2="375.4922"/><text fill="#FFFFFF" font-family="sans-serif" font-size="13" lengthAdjust="spacing" textLength="214" x="335" y="370.4263">produit.likeEvaluation(Evaluation)</text><polygon fill="#E7E7E7" points="339,400.625,329,404.625,339,408.625,335,404.625" style="stroke:#E7E7E7;stroke-width:1.0;"/><line style="stroke:#E7E7E7;stroke-width:1.0;" x1="333" x2="597" y1="404.625" y2="404.625"/><text fill="#FFFFFF" font-family="sans-serif" font-size="13" lengthAdjust="spacing" textLength="241" x="345" y="399.5591">evaluation.usager.pointsBonus += 10</text><polygon fill="#E7E7E7" points="52,429.7578,42,433.7578,52,437.7578,48,433.7578" style="stroke:#E7E7E7;stroke-width:1.0;"/><line style="stroke:#E7E7E7;stroke-width:1.0;" x1="46" x2="317" y1="433.7578" y2="433.7578"/><text fill="#FFFFFF" font-family="sans-serif" font-size="13" lengthAdjust="spacing" textLength="253" x="58" y="428.6919">10 points bonus vous ont été attribués!</text><polygon fill="#E7E7E7" points="339,458.8906,329,462.8906,339,466.8906,335,462.8906" style="stroke:#E7E7E7;stroke-width:1.0;"/><line style="stroke:#E7E7E7;stroke-width:1.0;" x1="333" x2="692" y1="462.8906" y2="462.8906"/><text fill="#FFFFFF" font-family="sans-serif" font-size="13" lengthAdjust="spacing" textLength="131" x="345" y="457.8247">evaluation.signaler()</text><polygon fill="#E7E7E7" points="57,488.0234,47,492.0234,57,496.0234,53,492.0234" style="stroke:#E7E7E7;stroke-width:1.0;"/><line style="stroke:#E7E7E7;stroke-width:1.0;" x1="51" x2="317" y1="492.0234" y2="492.0234"/><text fill="#FFFFFF" font-family="sans-serif" font-size="13" lengthAdjust="spacing" textLength="241" x="63" y="486.9575">10 points bonus vous ont été enlevés</text><polygon fill="#E7E7E7" points="306,517.1563,316,521.1563,306,525.1563,310,521.1563" style="stroke:#E7E7E7;stroke-width:1.0;"/><line style="stroke:#E7E7E7;stroke-width:1.0;" x1="46" x2="312" y1="521.1563" y2="521.1563"/><text fill="#FFFFFF" font-family="sans-serif" font-size="13" lengthAdjust="spacing" textLength="146" x="53" y="516.0903">evaluation.supprimer()</text><polygon fill="#E7E7E7" points="581,546.2891,591,550.2891,581,554.2891,585,550.2891" style="stroke:#E7E7E7;stroke-width:1.0;"/><line style="stroke:#E7E7E7;stroke-width:1.0;" x1="328" x2="587" y1="550.2891" y2="550.2891"/><text fill="#FFFFFF" font-family="sans-serif" font-size="13" lengthAdjust="spacing" textLength="146" x="335" y="545.2231">evaluation.supprimer()</text><polygon fill="#E7E7E7" points="339,575.4219,329,579.4219,339,583.4219,335,579.4219" style="stroke:#E7E7E7;stroke-width:1.0;"/><line style="stroke:#E7E7E7;stroke-width:1.0;" x1="333" x2="597" y1="579.4219" y2="579.4219"/><text fill="#FFFFFF" font-family="sans-serif" font-size="13" lengthAdjust="spacing" textLength="15" x="345" y="574.356">ok</text><polygon fill="#E7E7E7" points="52,604.5547,42,608.5547,52,612.5547,48,608.5547" style="stroke:#E7E7E7;stroke-width:1.0;"/><line style="stroke:#E7E7E7;stroke-width:1.0;" x1="46" x2="322" y1="608.5547" y2="608.5547"/><text fill="#FFFFFF" font-family="sans-serif" font-size="13" lengthAdjust="spacing" textLength="241" x="58" y="603.4888">10 points bonus vous ont été enlevés</text><!--SRC=[dP9DQiCm48NtEiKqguIIa7XPsa9JiY-KhaeNurXDH9oHaKQ67gABdg1hdyCNwX4g_v38hWsXO0GQthptQJpse2X3WqSmsb7og0r90z5Iu9QrWOVjNh9q1j224v9OyGUya7hUwwokaH89CiPe9KpMrPduJnELXRIJIX8dhPUpk9EDKoH4LLGvilI-3kRtbHNS0Bw_AvzfdenEdE8ctqndeTvdYahjc-B4zwJAikmrO0i-E_Tv42y_9RKDhsyYaQ76qzpEXscivmXOiwQwa3ccxYIQrbTafMdMvRn0FmRxy_trsUCCRlLV2AwTwKR2HN-PKtMGcrFmC4FVDX8Tlg6dzMmtWMtud7FSejcAHQOLiLrhSXQkxs2rxBss3NE-URM4HWrnBS-rFpGnb0MN1I2pKR4h2tirEeKWtweTOLglsEKPabAP-uJHyNHsEanpMMRKiTdeS80Zch5zq8T_psUGlRTDlm00]--></g></svg>
